<svg xmlns="http://www.w3.org/2000/svg" viewBox="0 0 800 450"><defs><style>.cls-1{fill:none;}.cls-2{fill:#d50f3b;}.cls-3{fill:#1d1d1b;}</style></defs><title>Grand Old Parr_Positve</title><g id="BG"><rect class="cls-1" width="800" height="450"/></g><g id="Logos"><path class="cls-2" d="M320.43,53.05c.68.57,2,.09,2,1.84-5.21,6.63-12,11.84-18.13,17.28a3.47,3.47,0,0,1-3.68-.28c-3-4,6.74-5.5,2.55-9.63-6.57-.51-14.11-1-18.13,4.82-9.36,8.47-8.36,26.61-8.36,39.67V146c0,10.76,5.75,18.16,13.17,22.81,4.59,1.64,8.84,5,14.17,4,4.23-5.93,3.42-14.44,3.42-25.22V99.38c-.62-6-6.09-12-11.93-13.88-2.83-1.19-7,.34-8.78-2.83-.45-1.47.62-2.55,1.7-3.12H308c4.25.62,7.71,3.8,9.63,7.65,2.44,7.42,2.78,16.6,2.67,24.37.23,16.49,0,38.53,0,45s-7.82,15.92-12.58,22.44c-4.65,4.93-12.07,1.42-17.57.85-11.39-3-24.93-18.45-24.93-31.21V83.23c1.42-13.94,16.49-20.46,25.5-29.75l2-.43Z"/><path d="M357.55,81A42.18,42.18,0,0,1,349,93.71a3.09,3.09,0,0,1-4-1.13c.23-.85-.4-1.3-.57-2-.51-.17-.65.23-1,.57v39.67c1.08,5.16,11.53.06,8.36,6.8l-1.7.85H326.95c-.68-.4-1.47-.34-2-1.13.51-2.15,2.64-2.44,3.72-4.37a15.41,15.41,0,0,0,1.57-7.24V90.59c0-3-2.17-6.18-5.29-8.22-.91-1.3.34-2.61,1.42-3.12,4.82-.06,11.5-1.64,14.17,3.12,2.27,1.53,3.57-2.72,5.67-3.12,3.06-1.19,7-.17,9.92,0Z"/><path d="M441.12,88.68v36.84c0,4.4-.24,6.56,4.26,9.58.79,1.25-.79,2.78-2,3.12-5.55,0-11.79-.15-13.75-3.87a19.5,19.5,0,0,1-2.15-9.59V92.86A6,6,0,0,0,424.17,88c-2.49-.51-8.4-.39-8.4,5.28v33.66c0,3.72.44,6.2,2.69,8.45.23,1.42-.06,1.88-1.14,2.51-5.44.23-13.08.21-18.69,0-1.87-.62-1.25-2.44-.57-3.68,3.46-2.32,4.57-.47,4.57-6.54V92.84c0-3.31-.38-6.64-1.95-8.2-1.34-1.34-3.42-1.75-2.91-4,3.34-2.44,8.84-1.42,12.75-.85,1.08,1.25,2.67,4.13,4.82,2,3.73-3.73,11.91-2.6,17.19-2.6C436.79,79.21,441.12,83.69,441.12,88.68Z"/><path d="M484.76,54.61a54.31,54.31,0,0,1,2.09,16.81V129.5c.4,3.46,3.52,4.73,5.57,7.28l-1.7,1.42H478.25c-2.61-.74-2.78-5.44-5.38-4-3.17,4.87-8.84,4.48-13.88,4A20.52,20.52,0,0,1,445.66,126c-2.66-11.79-3.17-25.9,4.82-35.42,4.42-3.91,10.29-9.4,12.88-10.79,1.91-1,6-.7,8.66-.82l.57-.57c-.11-9.24,2.38-19.32-4.82-25.78-1.3-.79-.06-2.21.85-2.55,3.85,0,8-.17,12.19,0C483,50.76,483.46,53.08,484.76,54.61ZM461.25,90c-6.52,4.31-4.53,12.64-4.53,19.55s1.19,13.77,6.52,18.7c1.36,1.25,3.74.91,5.38.57,1.59-.74,4.2-1.05,4.2-5.75V93s-.07-2.94-1.39-3.82C469.23,87.72,464.24,88.75,461.25,90Z"/><path d="M391.88,87.77v40.5c0,3.23,2.38,5.5,4.48,7.93,0,2.44-3.89,2.27-7.93,2.27-1.93,0-4.48.11-6.23-1.13-1.47-1.13-1.25-4.53-3.68-3.68-3.85,4.42-9.58,5.16-15.3,4.25-9.58-2.61-12.92-12.75-13.6-21.53-1.08-8.44,3.12-19.11,5.48-23.12,1.36-2.31,10-9,16.83-13.31,3.42-2.15,11.53-1.14,12.91-.78C387.72,79.91,391.88,83.66,391.88,87.77ZM365.2,92.86c-3.4,9.69-3.63,23.29,1.42,32.58,1.53,1.76,3.17,4.31,5.95,3.68a6.39,6.39,0,0,0,6.64-6.52V94s.75-3.87-2.19-5S367.35,89.12,365.2,92.86Z"/><path class="cls-2" d="M483.77,269.66,478.25,275l-18.13,9.78H436c-5.89-2.83-16.09-12.89-16.09-12.89v92.37c.62,1,.91,2.27,2.21,2.55L425,366l24.65-16.15c2.72-1.08,3.91,2.66,5.38,4.25.45,1,1.3,2.21.57,3.4l-11.33,7.93L402.6,392.9,391.83,400c-2.49.23-3.51-2.72-4.82-4.25.51-2.38,2.83-4,4.25-5.95,2.72-5.16,5.2-10.82,5.32-17V221.21c-.45-5.78,0-16.52-3.33-18.42-2.89-1.76-8.44-.74-8.5-5.67L385,196c8.84-6.18,18.08-12.07,26.63-18.42l-.57-.75h-32c-4.59,2.49-8.5,7.89-13.88,7.55-1.64-1.64-4.19-3.8-3.68-6.23,10.43-6.57,20-15.3,30.88-20.68,7.59-1.64,16.43-.34,24.37-1.13l42.78.28c18.08,3.17,28.56,20.91,34,36.55C499.78,218.15,497.54,248.29,483.77,269.66Zm-52-92.83c-4.08,1.81-9.27,4.66-11.82,8.4v83.3c1.59-1,2.95-2.89,5-2.55,7.82,3.23,14.9,9.12,24.65,6.8,7.59-1.59,13.77-8.5,17.85-15,6.74-16.32,9.12-36.49,4.25-54.4-.68-.68.28-2-.85-2.55-2-6.69-3.85-14.31-9.35-19.55C454.7,174.75,445,176.82,431.76,176.82Z"/><path class="cls-2" d="M179.9,163.12c10.43,7.76,16.35,18.64,16.58,31.17V345.87c-.23,6.18,1.22,14.28-1.56,20.12-8.1,11.39-17.4,28.16-33.15,28.9-22.16,1.13-42.11-7.82-56.1-26.63C94.26,352.91,94.19,320,94.19,320V204.49A16.77,16.77,0,0,1,98,197.12l30-27.2C141.48,157.51,164.26,152.3,179.9,163.12Zm-19.27,15.3c-7.82-.74-17,.11-25.5.28-7.2,5-16.28,11.16-16.9,20.68.11,21.87,0,133.86,0,140.32s4.78,11.89,6.7,15.23c7.54,12.36,20.06,22.44,34,24.94,4.08.05,10.12,1.36,13.46-1.14V185.79C170,182.56,164.54,179.27,160.63,178.42Z"/><path d="M231.75,193.16c7.76,5.21,6.26,15.36,8.08,23.52V343a17.53,17.53,0,0,0,8.08,10.2c1,.91-.62,1.64-1.13,2-12.58.91-24.14.23-36.83,0-1.47-.05-1.81-2-.85-2.83,6.18-4.48,8.92-10.88,9.26-18.42V214.12c-1.7-7-1.59-14-9.83-19.55-.34-.74.57-1,.85-1.42A184.49,184.49,0,0,1,231.75,193.16Z"/><path d="M582.79,247.84c4,1.81,4.36,5.89,6.8,9.07h.85c3.17-3.46,6-8.27,10.77-9.07l15.3-.28a3.93,3.93,0,0,1,2,1.42l-.56,2.27c-3.63,6.06-8.62,11.56-11.62,17.85-1.53,1.76-3.51,4.19-6.23,3.12-1.08-.57-2.15-1.64-1.7-3.12,1.46-1.59,3.42-2.56,2.34-3.94a6,6,0,0,0-6.51.88c-2.15,3.13-2.07,8.47-2.07,13.82v60.93c0,3.71,2.15,5.71,4,7.07,3.74,1.13,8.27.11,12.18.85,1.59,1.64.57,3.23.85,5.38l-1.42,1.41-45.33.28a5.21,5.21,0,0,1-1.42-1.13c.85-3.06,5.55-5.24,7.31-7.9a21.38,21.38,0,0,0,3-11.63V267.4c0-7-4.85-12.65-10.63-17.3-.91-2,1.47-1.76,2.27-2.55Z"/><path d="M642.89,247.84c4,1.81,4.36,5.89,6.8,9.07h.85c3.17-3.46,6-8.27,10.77-9.07l15.3-.28a3.93,3.93,0,0,1,2,1.42l-.57,2.27c-3.63,6.06-8.61,11.56-11.61,17.85-1.53,1.76-3.52,4.19-6.24,3.12-1.08-.57-2.15-1.64-1.7-3.12,1.46-1.59,3.42-2.56,2.34-3.94a6,6,0,0,0-6.51.88c-2.15,3.13-2.07,8.47-2.07,13.82v60.93c0,3.71,2.15,5.71,4,7.07,3.74,1.13,8.27.11,12.18.85,1.59,1.64.57,3.23.85,5.38l-1.42,1.41-45.33.28a5.18,5.18,0,0,1-1.42-1.13c.85-3.06,5-4.36,6.8-7a24.9,24.9,0,0,0,3.55-12.51V267.4c0-7-4.85-12.65-10.63-17.3-.9-2,1.47-1.76,2.27-2.55Z"/><path d="M319.3,192.59c5,1.42,5.33,6.74,7.08,10.48,3.12,11.84,1.56,24.42,2.12,37.68.28,32.36-.28,59.44,0,91.8.68,7.7,2.86,16,10.63,19.83.06.57.68.91.85,1.41l-1.13,1.13-23,.28c-4.48-1.19-5.27-6.4-7.93-9.63h-.85c-5.55,3.4-9.75,10.09-16.72,10.2-14.11,3.29-24.93-7.42-32-17.85-5.38-12.3-7.37-26.69-5.95-41.08.62-20.06,16.6-35.08,32-47,5.89-3.29,13.26-3.12,20.4-3.4l1.13-1.7c-1.42-15,2.44-30.26-4-43.35-2.15-2.44-5.21-4.53-6.52-7.37.79-1.59,2.44-1.3,3.68-1.7ZM291,263.42c-5.21,1.13-12.35.17-14.45,6.52-4.08,18.53-4.82,41.2,1.7,59.22,3.74,6.18,9.69,13.32,17.57,12.18,4.65-1.36,9.42-4.82,11.24-9.35V267.11C305.38,261.21,296,264.22,291,263.42Z"/><path d="M484.9,269.8c9-7.42,18.67-16.24,28.76-21.39,8.73-.45,19.44-3,26.63,2.83,8.56,4.93,6,16.38,7.37,24.08-.23,22.44-.17,43.8,0,65.73,1,4.76,3.51,8.33,7.37,11.9,1.19,1.25-.91,2.32-1.7,2.55l-20.4-.28c-3.29-2.95-4.19-6.86-6.52-10.2-4.93,3.23-9.46,8.61-15.3,10.2-6.18-.17-13.88,1.81-19-1.7-12.13-7.82-18.25-20.62-19.27-34.28C470.48,301.39,474,282.89,484.9,269.8Zm37.5-5.92c-3.91-2.35-14.8-.29-20.36,2.66-5.84,4.65-6.18,12.13-7.37,19-1.19,16.83-2.38,33.32,5.38,47.88,5.37,5.95,5.95,11.31,16.15,7.37,4.31-2.21,8.54-3.32,11.22-11.53V274.5S528.12,267.31,522.4,263.88Z"/><path class="cls-3" d="M698.9,333.6a11.13,11.13,0,0,1,3.63,2.43,11.79,11.79,0,0,1,2.41,12.63,11.06,11.06,0,0,1-6,6,12,12,0,0,1-9,0,11.09,11.09,0,0,1-3.63-2.41,11.22,11.22,0,0,1-2.41-3.61A11.64,11.64,0,0,1,686.24,336a11,11,0,0,1,3.63-2.43,12.1,12.1,0,0,1,9,0Zm-8.37,1.52a9.44,9.44,0,0,0-5.07,5.19,10.61,10.61,0,0,0,0,7.68,9.43,9.43,0,0,0,5.07,5.19A9.61,9.61,0,0,0,703.29,348a10.33,10.33,0,0,0,0-7.68,9.63,9.63,0,0,0-2-3.1,9.83,9.83,0,0,0-10.73-2.09Zm-.3,15.64v-13.2h5.07a4.77,4.77,0,0,1,3.27.94,3.49,3.49,0,0,1,1,2.72,4,4,0,0,1-.26,1.5,3.18,3.18,0,0,1-.72,1.09,3.48,3.48,0,0,1-1.06.71,6,6,0,0,1-1.28.39l3.93,5.87h-1.91l-3.72-5.87h-2.73v5.87Zm5.24-7.3a4.34,4.34,0,0,0,1.27-.26,1.9,1.9,0,0,0,.89-.69,2.26,2.26,0,0,0,.34-1.31,2.16,2.16,0,0,0-.27-1.14,2,2,0,0,0-.7-.69,2.91,2.91,0,0,0-1-.35,7,7,0,0,0-1.17-.09h-3v4.58H694C694.5,343.51,695,343.49,695.47,343.46Z"/></g></svg>