<svg xmlns="http://www.w3.org/2000/svg" viewBox="0 0 800 450"><defs><style>.cls-1,.cls-4{fill:none;}.cls-2{fill:#ffde36;}.cls-3{fill:#fff;}.cls-4{stroke:#84764f;stroke-miterlimit:10;stroke-width:1.75px;}.cls-5{fill:#ff1926;}.cls-6{fill:#84764f;}</style></defs><title>J&amp;amp;B_Positve</title><g id="BG"><rect class="cls-1" width="800" height="450"/></g><g id="Logos"><path class="cls-2" d="M198.1,429.68,183.49,73H316.85a92.18,92.18,0,0,1,27.48-33.94,91.93,91.93,0,0,1,111.33,0A92.16,92.16,0,0,1,483.15,73H616.51l-14.6,356.65Z"/><path d="M400,30.64A80.86,80.86,0,0,1,449.41,47.3a82.42,82.42,0,0,1,26.92,36.05H605.76L592,419.36H208l-13.77-336H323.67A82.42,82.42,0,0,1,350.59,47.3,80.86,80.86,0,0,1,400,30.64M400,10a101.34,101.34,0,0,0-61.92,20.88,102.47,102.47,0,0,0-27.53,31.83H172.74l.88,21.49,13.77,336,.81,19.8H611.82l.81-19.8,13.76-336,.88-21.49H489.44a102.47,102.47,0,0,0-27.53-31.83A101.34,101.34,0,0,0,400,10Z"/><path class="cls-3" d="M400,30.64A80.86,80.86,0,0,1,449.41,47.3a82.42,82.42,0,0,1,26.92,36.05H605.76L592,419.36H208l-13.77-336H323.67A82.42,82.42,0,0,1,350.59,47.3,80.86,80.86,0,0,1,400,30.64m0-9.17A90,90,0,0,0,345,40a91,91,0,0,0-27.45,34.18H184.68l.39,9.55,13.77,336,.36,8.8H600.81l.36-8.8,13.76-336,.39-9.55H482.42A91,91,0,0,0,455,40a90,90,0,0,0-55-18.53Z"/><path class="cls-4" d="M592,419.36l13.76-336H476.33A82.42,82.42,0,0,0,449.41,47.3a81.61,81.61,0,0,0-98.81,0,82.41,82.41,0,0,0-26.92,36.05H194.24l13.77,336Z"/><path class="cls-5" d="M558,369.07a15.55,15.55,0,1,0,15.81,15.52A15.68,15.68,0,0,0,558,369.07Zm0,27.8a12.27,12.27,0,1,1,12.5-12.28A12.38,12.38,0,0,1,558,396.87Z"/><path class="cls-5" d="M560.76,385.32c2.59-.46,4.45-2.23,4.45-4.78,0-2.25-1.82-4.67-5.86-4.67h-7.72v17.05h3.45V386h1.22c1.77,0,2.44.41,4.6,4.18l1.47,2.55,3.57.19h.69l-2.37-3.77C563,387.13,562,386,560.76,385.32Zm-5.68-6.48H559c1.57,0,2.57.81,2.57,2.06,0,1.81-1.89,2.08-3,2.08h-3.45C555.08,382.36,555.08,379.44,555.08,378.85Z"/><path id="_Path_" data-name="&lt;Path&gt;" class="cls-6" d="M377.78,146.79v-28.4c0-1.14-.52-1.85-2.28-1.85l-84.76,0c-1.33,0-1.74.62-1.73,1.6,0,0,0,27.29,0,28.16s.35,1.51,1.32,1.51h20.51a.63.63,0,0,1,.65.69c0,.34.19,201,.2,203.68,0,6.29-5.77,16.39-16.83,16.4-15,0-18.91-10.23-17.86-16a43.26,43.26,0,0,0,4.55.35c11.78,0,20.46-11.19,20.46-24.72,0-14.81-11.06-26.16-27.9-26.16-16.12,0-32.82,13.36-32.82,38.64,0,27.87,24.3,50.64,54.87,50.64,27.81,0,57.5-19.25,57.5-55.74,0-15.31.19-167.55.19-186.95,0-.56.19-.76.8-.76h21.9C377.32,147.9,377.78,147.53,377.78,146.79Z"/><path id="_Path_2" data-name="&lt;Path&gt;" class="cls-6" d="M423.81,284.77c0-12-7.94-17.7-14.57-17.7a12.73,12.73,0,0,0-12.48,12.52c0,5,4.4,8.89,9,9.32.37,0,.51.37.39.77-.59,2-2.09,6.15-8.09,6.15-7.65,0-11.85-11.5-11.85-19.74,0-18,6.36-22.7,14.68-22.7a11.93,11.93,0,0,1,4.4.65c.36.15,1.31.36,1.31-.58,0-.74,0-11.43,0-12.23s-.65-.86-1.15-.7a37.42,37.42,0,0,1-5.89.7c-6.57,0-12.66-6.56-12.66-17.18,0-14.86,4.56-22.71,11.32-22.71a6.08,6.08,0,0,1,5.84,4c.08.53.08.85-.47.92-2,.24-6.81,3.5-6.81,10.38,0,7.8,7.15,12,12.41,12s12.09-4.71,12.09-14.9c0-14.86-15.24-21.55-25.49-21.55-15.36,0-31,10.07-31,30.09,0,13.52,9.15,23.37,12.31,25.88.32.26.33.51-.06.69-5.35,2.67-15.65,13.19-15.65,28.66,0,15.78,13.45,31.39,34.48,31.39C414.93,308.93,423.82,293.09,423.81,284.77Z"/><path id="_Compound_Path_" data-name="&lt;Compound Path&gt;" class="cls-6" d="M513,236.95c17.17-4.81,39.84-24.77,39.84-56.53,0-41.54-34.7-63.45-62.47-63.45-18,0-80.74.2-80.74.2-1,0-1.57.61-1.57,1.26s-.06,27.83-.06,28.33c0,.83.28,1.26,1.48,1.26h22.92c.52,0,.69.45.69,1V357c0,1-.41,1.45-1.31,1.45H408.17c-.69,0-1.06.61-1.06,1.31s.06,29.23.06,29.8a.87.87,0,0,0,.95,1l76,.12c52.92,0,81.9-42.95,81.9-78.65C566.05,261.64,528.43,240.49,513,236.95Zm-38.18-89a24.43,24.43,0,0,1,5.58-.42c18.44-.51,30.8,7,30.8,33.65s-11.85,43.87-31.58,43.31c-2.23-.06-5.29,0-5.29-.92S474.81,147.95,474.81,147.95Zm-1.12,210,.58-107.75c29.77-.86,44.84,19.42,44.84,57.16C519.11,350.89,496.65,359.77,473.69,358Z"/><path id="_Path_3" data-name="&lt;Path&gt;" class="cls-5" d="M373.08,143.26V114.86c0-1.14-.51-1.86-2.28-1.86L286,113c-1.33,0-1.73.62-1.73,1.61,0,0,0,27.28,0,28.15s.35,1.51,1.32,1.51h20.51a.63.63,0,0,1,.65.7c0,.33.19,201,.2,203.68,0,6.28-5.78,16.39-16.83,16.39-15,0-18.91-10.23-17.87-16a42.37,42.37,0,0,0,4.55.35c11.79,0,20.46-11.2,20.46-24.73,0-14.81-11.06-26.17-27.9-26.17-16.12,0-32.83,13.37-32.83,38.64,0,27.88,24.3,50.65,54.88,50.65,27.8,0,57.5-19.25,57.5-55.74,0-15.3.19-167.54.19-186.94,0-.56.19-.76.8-.76h21.9C372.63,144.37,373.08,144,373.08,143.26Z"/><path id="_Path_4" data-name="&lt;Path&gt;" class="cls-5" d="M419.13,281.24c0-12-8-17.7-14.57-17.7a12.73,12.73,0,0,0-12.48,12.53c0,5,4.4,8.89,9,9.32.37,0,.51.37.39.77-.58,2-2.09,6.16-8.09,6.16-7.65,0-11.85-11.5-11.85-19.74,0-18,6.36-22.7,14.68-22.69a12,12,0,0,1,4.41.64c.36.15,1.3.36,1.3-.57,0-.74,0-11.43,0-12.23s-.65-.86-1.15-.71a37.41,37.41,0,0,1-5.89.71c-6.57,0-12.67-6.56-12.67-17.19,0-14.87,4.56-22.71,11.32-22.71a6.08,6.08,0,0,1,5.84,4c.09.54.09.85-.47.92-2,.24-6.82,3.49-6.82,10.38,0,7.8,7.16,12,12.42,12s12.09-4.71,12.09-14.9c0-14.86-15.25-21.55-25.49-21.55-15.36,0-31,10.07-31,30.09,0,13.52,9.14,23.37,12.31,25.89.33.26.33.51-.06.69C367,248,356.74,258.55,356.74,274c0,15.78,13.44,31.39,34.48,31.39C410.23,305.4,419.13,289.56,419.13,281.24Z"/><path id="_Compound_Path_2" data-name="&lt;Compound Path&gt;" class="cls-5" d="M508.41,233.42c17.17-4.81,39.84-24.76,39.84-56.53,0-41.54-34.7-63.45-62.47-63.45-18,0-80.74.2-80.74.2-1,0-1.57.61-1.57,1.26s-.07,27.84-.07,28.34c0,.83.28,1.26,1.49,1.26h22.92c.52,0,.69.45.69.95V353.5c0,1-.41,1.45-1.31,1.45h-23.6c-.69,0-1.06.61-1.06,1.31s.06,29.23.06,29.8a.88.88,0,0,0,.95,1l76,.11c52.92,0,81.9-42.95,81.9-78.65C561.48,258.12,523.85,237,508.41,233.42Zm-38.18-89a24.84,24.84,0,0,1,5.58-.41c18.44-.51,30.8,7,30.8,33.65S494.75,221.53,475,221c-2.22-.06-5.29,0-5.29-.92S470.23,144.42,470.23,144.42Zm-1.12,210,.58-107.76c29.76-.85,44.84,19.42,44.84,57.17C514.53,347.36,492.08,356.24,469.11,354.47Z"/></g></svg>