<svg xmlns="http://www.w3.org/2000/svg" xmlns:xlink="http://www.w3.org/1999/xlink" viewBox="0 0 800 450"><defs><style>.cls-1{fill:none;}.cls-2{fill:#8ec89a;}.cls-3{fill:#cfcfcf;stroke:#cfcfcf;stroke-width:0.21px;}.cls-4{fill:#c49c00;}.cls-5{fill:url(#linear-gradient);}.cls-6{fill:#1d1d1b;}.cls-7{fill:#fff;}</style><linearGradient id="linear-gradient" x1="154.32" y1="383.91" x2="154.32" y2="61.12" gradientUnits="userSpaceOnUse"><stop offset="0" stop-color="#da0812"/><stop offset="0.2" stop-color="#d10910"/><stop offset="0.51" stop-color="#b90b0c"/><stop offset="0.91" stop-color="#910f04"/><stop offset="1" stop-color="#881002"/></linearGradient></defs><title>Ketel One_Positve</title><g id="BG"><rect class="cls-1" width="800" height="450"/></g><g id="Logos"><path class="cls-2" d="M204.24,83.65l-41.58,23.69a2,2,0,0,0-1.17,1.59,1.75,1.75,0,0,0,1,1.45c.59.34,14.77,8.8,17.25,24.76a33.73,33.73,0,0,1,.36,4.94c0,11.43-6,23.77-17.72,36.77-20.32,22.42-30.55,23.36-30.66,23.37a2.36,2.36,0,0,1-1.94-.56,2.52,2.52,0,0,1-.82-1.9V92.28a2.16,2.16,0,0,0-2.13-2.15H66.27a1.21,1.21,0,0,0-.89,2.1,60.75,60.75,0,0,1,14.19,37.08l0,5.07V338.84A2.14,2.14,0,0,0,81.67,341h45.8a2.15,2.15,0,0,0,2.13-2.13V221.22a4.56,4.56,0,0,1,2.16-4.05s9.95-6.3,9.95-6.3a2.6,2.6,0,0,1,2-.33,2.45,2.45,0,0,1,1.55,1.28s0,0,76.85,154a3,3,0,0,0,3.08,1.48l19.59-4.67a1.16,1.16,0,0,0,.84-1,1.28,1.28,0,0,0-.82-1.31,34.1,34.1,0,0,1-9.73-7,40,40,0,0,1-11.94-26c-1.11-14.31.33-48.94.49-52.84,1.5-69.8-40.59-91.37-41-91.59a2,2,0,0,1-1.18-1.48,1.94,1.94,0,0,1,.78-1.73l18.62-16.06c30.12-24.62,28.7-44.22,28.61-45,.44-23.07-21.08-34.88-21.3-35A4.46,4.46,0,0,0,204.24,83.65Z"/><path class="cls-2" d="M490,236.79c-9.8-10.89-18.19-29.29-18.19-60.37,0-39.16,11.66-56.61,22.7-67.4,9-8.79,20.74-14.62,26.19-14.62s18.79,4.31,27.79,13.11c11,10.78,21.09,29.76,21.09,68.92,0,31.08-10,49.49-19.82,60.37-9.49,10.54-27.18,15.52-31,15.52C516.79,252.31,502.59,250.79,490,236.79Zm30.7,4.85c3.12,0,9.42-5.26,12.54-13.1,3.91-9.8,4.82-26.07,4.82-55.84s-3.25-45.71-6.94-54.78-8.43-11.24-10.42-11.24-6.73,2.17-10.42,11.24-6.42,25-6.42,54.78,3,47.39,6.94,57.19S519.77,241.63,520.71,241.63Z"/><path class="cls-2" d="M291.71,162.17c4.49,7.49,4,17.28-3.9,24.36-4.22,3.76-25.28,19.41-26.35,20.17s-1.19,1.51-.74,2.85C264.54,221,272.55,229,282.39,229c7.83,0,14.29-5.13,14.73-6s.78-.61,1.07,0a15,15,0,0,1,.91,3.13c.14.91-.31,1.36-1.06,1.83S267.8,250,267,250.49a2.22,2.22,0,0,1-2.24.13c-13.85-5.69-28-20-28-50.09,0-20.8,8.08-41.83,25.14-54,4.21-3,13.38-8.72,14.13-9.34s1.2-.13,1.51.48C277.57,137.65,288.55,156.89,291.71,162.17ZM268.85,193c4.4-3.3,7.23-10.29,2.4-18.81-2.56-4.52-6.61-12.66-7.21-13.86a13.12,13.12,0,0,1-1.66-4.35c-.19-1.92-1.39-2.49-2.11-1-2.86,5.7-5.28,14.9-5.73,25.56a47,47,0,0,0,2.87,18.66c.29,1.05.88,1.36,1.66.77C259.08,199.94,264.63,196.15,268.85,193Z"/><path class="cls-2" d="M406.65,162.17c4.5,7.49,4,17.28-3.9,24.36-4.22,3.76-25.28,19.41-26.34,20.17s-1.2,1.51-.77,2.85C379.47,221,387.49,229,397.32,229c7.83,0,14.3-5.13,14.75-6s.75-.61,1.06,0a16.52,16.52,0,0,1,.9,3.13c.15.91-.31,1.36-1.06,1.83s-30.23,22.1-31,22.57a2.23,2.23,0,0,1-2.25.13c-13.84-5.69-28-20-28-50.09,0-20.8,8.07-41.83,25.13-54,4.22-3,13.38-8.72,14.14-9.34s1.2-.13,1.5.48C392.52,137.65,403.5,156.89,406.65,162.17ZM383.79,193c4.39-3.3,7.23-10.29,2.4-18.81-2.56-4.52-6.62-12.66-7.22-13.86a13.28,13.28,0,0,1-1.66-4.35c-.19-1.92-1.38-2.49-2.11-1-2.86,5.7-5.25,14.9-5.71,25.56a47.21,47.21,0,0,0,2.85,18.66c.29,1.05.91,1.36,1.65.77C374,199.94,379.57,196.15,383.79,193Z"/><path class="cls-2" d="M716.8,161.51c4.52,7.49,4,17.27-3.89,24.35-4.21,3.79-25.28,19.43-26.34,20.19s-1.19,1.48-.75,2.85c3.81,11.42,11.84,19.4,21.67,19.4,7.81,0,14.3-5.12,14.74-6s.76-.6,1.06,0a18.06,18.06,0,0,1,.9,3.17c.15.9-.29,1.35-1.06,1.81s-30.23,22.11-31,22.55a2.2,2.2,0,0,1-2.25.17c-13.86-5.73-28-20.05-28-50.12,0-20.78,8.06-41.84,25.12-54,4.22-3,13.39-8.75,14.16-9.35s1.2-.14,1.51.46C702.7,137,713.67,156.25,716.8,161.51ZM694,192.35c4.39-3.3,7.23-10.3,2.4-18.81-2.56-4.51-6.63-12.63-7.22-13.86a12.94,12.94,0,0,1-1.66-4.35c-.19-1.92-1.37-2.48-2.1-1-2.86,5.71-5.27,14.9-5.73,25.58a46.93,46.93,0,0,0,2.87,18.66c.29,1.06.9,1.34,1.64.76C684.16,199.29,689.73,195.5,694,192.35Z"/><path class="cls-2" d="M346.85,141.78l-13.44.08c-1.13,0-1.45-.33-1.45-1.4s-.4-25.41-.44-27S331,112,330,112a2.2,2.2,0,0,0-1.88,1.22c-.27.58-8.77,13.37-15,21.43a162.05,162.05,0,0,1-13,14.69,1.33,1.33,0,0,0-.38.87,24,24,0,0,1-.16,2.57c-.08.45.09.84.8.84h3.27a5.22,5.22,0,0,1,5.48,5.09c0,1.11.48,49.17.48,56s-.59,13.32,2.07,21.07c2.38,6.94,10.11,10.73,11.44,11.32a2.59,2.59,0,0,0,3-.65c.65-.8,16-17.64,16.84-18.37s.65-1.18,0-1.29a13.54,13.54,0,0,1-7.43-4.23c-2.23-2.22-3.73-5.58-3.73-11.14s0-53.4,0-54.58a1.33,1.33,0,0,1,1.49-1.52c.81,0,8.72.13,9.68,0s1.27-.33,1.57-1.1,3.25-10.51,3.41-11.48C348.07,142.09,348,141.78,346.85,141.78Z"/><path class="cls-2" d="M623.58,175.62c0,15.13.3,36.27.3,40.44,0,6.84-.6,13.29,2.06,21.06,2.4,6.92,9.23,10.87,10.6,11.44a2.58,2.58,0,0,0,3-.63c.63-.79,15.7-15.85,16.5-16.59s.66-1.16,0-1.28a9.93,9.93,0,0,1-6.91-3.89c-2.47-3.35-2.7-7.65-2.7-13.22,0-5.09-.36-47-.36-54.79a19.66,19.66,0,0,0-5.95-14.29,31.61,31.61,0,0,0-10.94-6.29c-1.3-.46-2.06-.5-3.69.76s-17.1,16.13-17.67,16.71-1,.2-1-1-.59-6.8-3.89-10.5a28.4,28.4,0,0,0-8.35-6c-1.09-.69-1.59-.64-2.22-.07-1.52,1.38-4.67,4.21-8.32,7.57s-7.7,6.61-8.95,7.49c-1.83,1.26-.5,3.09.08,2.31s.62-1.12,2-.61,7.38,3.09,7.38,13.4v78.44a1,1,0,0,0,1.16,1.15h20.39a1.32,1.32,0,0,0,1.36-1.37c0-.94-.31-68.52-.31-77.45,0-7.23,2.57-10.82,6.43-10.82C617,157.62,623.58,162.24,623.58,175.62Z"/><path class="cls-2" d="M442.08,115.13c0,10.84,0,91.53,0,96.34,0,5.56,1.52,8.91,3.74,11.14a9.19,9.19,0,0,0,7.64,3.14,1,1,0,0,1,.59,1.69c-.81.72-18.94,18.24-19.57,19.05a2.59,2.59,0,0,1-3,.63,21.13,21.13,0,0,1-9.81-11.32c-2.47-7.15-2.07-13.55-2.07-21.06,0-5.95-.15-71.33-.15-82.22,0-10.06-3.34-15.15-8.78-19.32-1.36-1-1.28-1.75.07-2.54s7.18-4.24,12-7.28,8.3-5.34,8.78-6.13,1.19-1,2.4-.49,4.14,2.86,6.14,6.79S442.08,111,442.08,115.13Z"/><path class="cls-2" d="M736.07,129.65h1.38c1.09,0,2.11.48,2.11,1.88a2.09,2.09,0,0,1-2.27,2.14h-1.22Zm-3.34,11.19h3.34v-5.2h1.56l2.86,5.41,3.51-.49-3.45-5.62a4.06,4.06,0,0,0,2.43-3.81c0-2.2-1.82-3.47-4.81-3.47h-5.43Zm4.82,6.23a12.34,12.34,0,1,0-12.5-12.4A12.45,12.45,0,0,0,737.55,147.06Zm0-2a10.32,10.32,0,1,1,10.19-10.37A10.39,10.39,0,0,1,737.55,145Z"/><path class="cls-2" d="M326.87,295.55c-.2-.21-.36-.21-.53,0a34.46,34.46,0,0,1-5.15,2.88c-3.46,1.73-7,3.4-7.18,3.44s-.2.15-.2.28a1.82,1.82,0,0,0,.23.72,2.2,2.2,0,0,0,.28.66c.09.11.21.16.47,0s2.81-1.25,6.42,3.66c1.7,2.33,1.55,7.68.68,12.16-.74,3.88-.5,4-2.86,10-2,5.24-6.33,12.71-8.27,16.18,0,0,0-.06,0-.07l-.52.84c0,.1-.27-.41-.31-.29l-12.67-34.17a14.26,14.26,0,0,1-.72-3.72c0-2.14,1.63-2.84,6.36-3.79v-2.6l-27.6,0v2.6c4.81.62,6,1.89,8.54,8.68L300,355.1h10.5c.29-1,13.48-26.11,17.15-34.49,4.4-10.07,4.28-17.42,1.55-22A18.69,18.69,0,0,0,326.87,295.55Z"/><path class="cls-2" d="M448.24,304.64c-4.33-3.47-9.67-4.84-18.68-4.84l-29.08,0v1.76l2.67.29a6.84,6.84,0,0,1,4.1,1.9c.62.85.78,2,.79,5.52l.06,33.73c0,3.57-.16,4.75-.79,5.54a6.63,6.63,0,0,1-4.09,1.9l-2.66.34v1.65l29.09,0c8.06,0,13.47-1.22,17.41-3.93,6.52-4.51,10.3-12.51,10.28-22.63C457.35,316.66,454.17,309.52,448.24,304.64ZM425,349.2l-3.75,0L421.22,303h3.5c13.11,0,18.49,6.67,18.51,23.18C443.26,342.38,437.91,349.17,425,349.2Z"/><path class="cls-2" d="M366,298.49c-9.53,0-16.29,2.24-21,7-4.45,4.57-7.54,11.29-7.52,20.13,0,9.79,3,16.4,7.59,21,4.86,4.74,11.49,6.94,20.94,6.91,18.7,0,28.6-9,28.58-27.6,0-9.29-3.1-16.08-7.66-20.49C382.13,300.76,375.35,298.48,366,298.49Zm.11,51.87c-9.32,0-14-8.28-14.05-24.67,0-15.72,4.8-24,13.88-24,9.32,0,14,8.17,14.06,24.27S375.38,350.35,366.15,350.36Z"/><path class="cls-2" d="M566.51,339.76l-15-40-11.26,0a33.37,33.37,0,0,1-1.72,6.61l-11.07,29.06c-4.21,10.23-6.21,13-9.86,13.94-3.58-6.09-6.43-12.74-10.42-18.54a38.63,38.63,0,0,0-6.16-7.18,21.79,21.79,0,0,0-3.75-2.61c-.65-.33-2.58-1.1-2.93-1.32l13-11.31c5.11-4.41,8.09-6.5,13.39-7.06v-1.72l-22.13,0v1.74c3.87.3,5,.82,5,2.63,0,1.55-.29,3.21-7.59,9.67-1.91,1.69-4.36,4.16-4.36,4.16l-8.7,7.74,0-16.56c0-3.62.14-4.4.78-5.25s2.35-1.67,4.07-1.91l2.68-.33v-1.86l-28.05.07v1.85l2.66.29a6.75,6.75,0,0,1,4.09,1.9c.63.85.8,1.62.8,5.26l.06,33.85c0,3.62-.16,4.66-.78,5.53a6.71,6.71,0,0,1-4.1,1.91l-2.67.31v1.73l27.54-.07,0-1.69-2.14-.34a6.55,6.55,0,0,1-4.09-1.87c-.63-.87-.8-1.91-.81-5.52V329.43l2.83-2.31s.87-.73,2.61.4a21.24,21.24,0,0,1,6.46,5.86c3.54,5.2,6.22,11.06,9.24,16.58,1.46,2.69,3,5.7,5.55,7.39a10.35,10.35,0,0,0,1.36.77,6.07,6.07,0,0,0,2.5.86,16.65,16.65,0,0,0,2.7.13c2.47,0,6.09,0,8.28,0,1.78,0,1.76,0,.15-1.18a25.8,25.8,0,0,1-5.06-5.48l15.06,0-.2-1.64c-4.51-.63-6.39-1.74-6.39-3.87a26.13,26.13,0,0,1,1.37-6l2.67-7.56H550.4l3,8.09a23.75,23.75,0,0,1,1.33,5.65c0,2-1.31,2.69-6.06,3.41l-.07,1.93,27-.1v-1.85C570.94,349.66,569.7,348.06,566.51,339.76Zm-33.3-9.31,8.31-22.67,7.94,22.64Z"/><path class="cls-3" d="M304.18,223.76c.79,1.81,2.32,6.71-1.06,9.17l.13-.06c-.75.49-7.79,5.68-14.27,10.41-13.79,10.06-11.47,8.39-11.91,8.64a6.08,6.08,0,0,1-5.18.74c.38-.22,3.45-2.46,15.64-11.37,7.94-5.8,13.42-9.85,14.21-10.4h0c1.22-1,1.2-3.78.26-6C301.59,223.87,303.72,222.8,304.18,223.76Z"/><path class="cls-3" d="M282.2,224.7a15,15,0,0,1-10-4.36,33.51,33.51,0,0,1-5.36-9.57l-.64-1.74,1.48-1.08c5.8-4.31,21.65-16.15,25.29-19.42a20.61,20.61,0,0,0,4.26-26.63c-3-5.06-14.06-24.36-14.61-25.33s1.46-2.33,2.08-1.32c.1.2,11.53,20.22,14.63,25.39a23,23,0,0,1-4.72,29.73c-3.91,3.51-20.73,16-25.47,19.56C271.91,217.6,276.67,222.91,282.2,224.7Z"/><path class="cls-3" d="M263.46,191.69a44.86,44.86,0,0,1-.77-8.34c0-.66,0-1.31,0-2a77.71,77.71,0,0,1,1.35-11.48c-.61-1.18-1.2-2.33-1.73-3.41a77.49,77.49,0,0,0-2.07,14.82l-.06,2.09a46.29,46.29,0,0,0,1.07,9.86Z"/><path class="cls-3" d="M418.09,232.93l.12-.06c-.75.49-7.79,5.68-14.29,10.41-13.76,10.06-11.47,8.39-11.88,8.64a6.09,6.09,0,0,1-5.19.74c.39-.22,3.44-2.46,15.62-11.37,7.94-5.8,13.42-9.85,14.21-10.4h0C417.89,229.93,419.16,232.06,418.09,232.93Z"/><path class="cls-3" d="M397.14,224.7a15,15,0,0,1-10-4.36,32.63,32.63,0,0,1-5.35-9.57L381.1,209l1.49-1.08c5.79-4.31,21.64-16.15,25.27-19.42a21,21,0,0,0,7.36-15.77,21.2,21.2,0,0,0-3.1-10.86c-3-5.06-14.06-24.36-14.61-25.33s1.46-2.33,2.08-1.32c.11.2,11.53,20.22,14.65,25.39a23.07,23.07,0,0,1-4.74,29.73c-3.91,3.51-20.73,16-25.47,19.56C386.85,217.6,391.63,222.91,397.14,224.7Z"/><path class="cls-3" d="M378.41,191.69a43.8,43.8,0,0,1-.77-8.34c0-.66,0-1.31,0-2A75.47,75.47,0,0,1,379,169.85c-.6-1.18-1.2-2.33-1.75-3.41a79.17,79.17,0,0,0-2.05,14.82l0,2.09a46.12,46.12,0,0,0,1.07,9.86Z"/><path class="cls-3" d="M729.29,223.08c.79,1.83,2.32,6.74-1.07,9.23l.14-.1c-.74.52-7.79,5.68-14.27,10.42-13.78,10.08-11.48,8.39-11.89,8.65A6.28,6.28,0,0,1,697,252c.39-.23,3.46-2.44,15.65-11.37,7.94-5.8,13.42-9.87,14.23-10.4h0c1.22-1,1.19-3.83.25-6C726.69,223.21,728.81,222.14,729.29,223.08Z"/><path class="cls-3" d="M707.31,224a15.13,15.13,0,0,1-10-4.37,33.46,33.46,0,0,1-5.37-9.57l-.63-1.73,1.48-1.1c5.81-4.29,21.66-16.15,25.28-19.4a21,21,0,0,0,7.37-15.77,21.27,21.27,0,0,0-3.09-10.87c-3-5.05-14.06-24.36-14.63-25.35s1.46-2.31,2.08-1.3c.11.21,11.56,20.22,14.64,25.38a23.08,23.08,0,0,1-4.71,29.77c-3.92,3.47-20.72,16-25.46,19.54C697,216.93,701.78,222.26,707.31,224Z"/><path class="cls-3" d="M688.58,191a43.31,43.31,0,0,1-.79-8.32c0-.65,0-1.33,0-2a79,79,0,0,1,1.37-11.51c-.6-1.16-1.2-2.33-1.74-3.39a77.05,77.05,0,0,0-2.07,14.8l0,2.1a46.48,46.48,0,0,0,1.06,9.87C687.1,192.05,687.82,191.54,688.58,191Z"/><path class="cls-3" d="M333,249.47c3.46-3.8,18.16-19.82,19.26-20.91.74-.85-1.47-2.11-2.15-1.41-1.07,1.09-14.49,15.71-18.32,20C330.63,248.5,331.63,251,333,249.47Z"/><path class="cls-3" d="M344,221.77a18.58,18.58,0,0,1-2.18-1.84c-1.07-1.06-2.5-3.08-2.5-8.13,0,0,0-46.48,0-49.81a60.83,60.83,0,0,0,7.62-.13,5.7,5.7,0,0,0,4.83-3.73c.36-.92,3.4-12.64,3.63-14a3,3,0,0,0,.06-.34c.26-1.51-2.12-1.69-2.47-.08-.24,1.12-3,12.39-3.52,13.52a3.24,3.24,0,0,1-3,2.23,26.39,26.39,0,0,1-3.08.09H336.9v.13c0,2.88,0,51.64,0,51.64a16.77,16.77,0,0,0,1.27,7c1.62,3.18,5.17,3.53,5.76,3.77S344.56,222.14,344,221.77Z"/><path class="cls-3" d="M339.47,137.6H337l-.4-23.41c0-1.28,2.46-1.17,2.46,0C339.07,116.36,339.35,130.78,339.47,137.6Z"/><path class="cls-3" d="M657.81,225.57a4.78,4.78,0,0,1-1.33-1.23c-1.58-2.19-1.89-5.32-1.89-10.72l-.13-22.6-.21-32.2c0-8.15-4.15-14.89-7.59-17.88-4.65-4-8.2-6-11.31-7.06a6.78,6.78,0,0,0-4.24-.16c3.08,1.1,6.88,3.39,11.49,7a36,36,0,0,1,2.78,2.48c3,2.68,6.42,8.42,6.42,15.67L652,191l.13,22.6a46.66,46.66,0,0,0,.35,6.7,7.55,7.55,0,0,0,5,5.74C658.58,226.47,658.75,226.08,657.81,225.57Z"/><path class="cls-3" d="M663.77,234.21c-1,1-14.28,14.2-16.72,16.76-.62.68-2.69-.83-1.95-1.52,2.09-2.2,15.93-16,17-17C662.85,231.68,664.88,233.15,663.77,234.21Z"/><path class="cls-3" d="M615.6,248.52l0-13.08-.27-66.34a13.76,13.76,0,0,1,.85-5.36,5.62,5.62,0,0,0-1.9-1.66c-.93,1.52-1.4,3.92-1.4,7l.26,66.35,0,13.06C613.14,249.95,615.6,249.95,615.6,248.52Z"/><path class="cls-3" d="M601.27,134.85A31.36,31.36,0,0,1,610,141.4a16.22,16.22,0,0,1,2.3,3.4c-.64.6-1.25,1.2-1.86,1.78a14.43,14.43,0,0,0-2.26-3.43c-.46-.53-1.1-1.19-1.59-1.67a49.19,49.19,0,0,0-7.79-5.51C597.45,135.31,599.62,134.05,601.27,134.85Z"/><path class="cls-3" d="M443.77,247.74c5-4.85,16.32-15.81,17-16.5,0,0,2.1-2,2.14-2.09,1.11-1-1.24-2.16-2.32-1.15-1.34,1.24-17.76,17.1-20.5,19.94C438.48,249.45,441.59,249.83,443.77,247.74Z"/><path class="cls-3" d="M453.58,221c-.27-.22-.52-.47-.84-.77-1.07-1.08-2.5-3.07-2.5-8.14V115.78c0-4.48-.17-8.88-2.56-13.53-1.15-2.25-2.77-4.68-5-5.93-3.31-1.82-4.9-1.45-1.38,1.44a20.62,20.62,0,0,1,4.25,5.62c2.1,4.16,2.28,8.07,2.28,12.4v96.33c0,4.23.93,6.74,2,8.31s3.44,1.9,4.16,1.91S454.69,221.89,453.58,221Z"/><path class="cls-3" d="M509.59,173.36c0,32.58,3.72,48.72,6.83,56.52a28.46,28.46,0,0,0,3.61,6.65,7.71,7.71,0,0,0,1,.7,8.27,8.27,0,0,0,1.82-1.2A23.32,23.32,0,0,1,518.7,229c-3-7.59-6.65-23.41-6.65-55.6,0-25.76,2-43.17,6.09-53.17,1.72-4.14,3.54-6.4,4.88-7.53a6.66,6.66,0,0,0-2-1.55,23.23,23.23,0,0,0-5.16,8.15C511.66,129.57,509.59,147.26,509.59,173.36Z"/><path class="cls-3" d="M576.95,158.4c-.22-.16-.44-.32-.63-.43a3.88,3.88,0,0,1-1.8.56c.52,5.8.8,12,.8,18.56,0,26.34-7.28,47-20.29,61.57a47.75,47.75,0,0,1-13.42,9.92,69.89,69.89,0,0,1-13.8,6.07c-2.85.9,2.62,1.21,6.81-.33,7.3-2.69,16.14-7.24,22.22-14,13.45-15,20.92-36.23,20.92-63.2C577.78,170.47,577.49,164.24,576.95,158.4Z"/><path class="cls-3" d="M575.56,147.45c-3.13-18.65-10.24-32.64-20.18-42.36-5.31-5.17-11.47-9.88-17.66-12.27-5.41-2-6.86-.66-4.61.21a57,57,0,0,1,18.35,11.43c1.19,1.12,2.19,2.15,3.36,3.33,9.21,9.5,15.77,23.22,18.58,41.39Z"/><path class="cls-1" d="M262.72,197.5l0,.15h0Z"/><rect class="cls-4" x="50" y="387.19" width="208.65" height="9.73"/><rect class="cls-4" x="50" y="53.08" width="208.65" height="9.71"/><rect class="cls-4" x="275.11" y="75.59" width="474.89" height="4.78"/><rect class="cls-4" x="275.11" y="268.89" width="474.89" height="4.8"/><path class="cls-5" d="M258.65,253.88c-11.72-6.17-27.41-20.51-27.41-53.35,0-24.34,10.25-46.22,27.41-58.5V62.79H50v324.4H258.65Z"/><path class="cls-6" d="M200.79,77.59c-.44.24-4.36,2.49-41.59,23.69-2.47,1.42-5,3.35-5,6.89h0c0,3.45,2.15,5.32,4.38,6.91,1.26.91,12.47,9.34,14.3,21.16a25.27,25.27,0,0,1,.29,3.84c0,9.64-5.35,20.44-15.91,32.09a126.09,126.09,0,0,1-14.93,14.3,45.55,45.55,0,0,1-6.34,4.39V90c0-4.17-2.54-6.82-6.49-6.82H68.35l.08.05a9.91,9.91,0,0,0-1.22-.05h-6.3c-2.76,0-4.86,1.19-5.77,3.3a5.85,5.85,0,0,0,1.29,6.27l3.65,4a53.24,53.24,0,0,1,12.49,32.55V340.15c0,5,2.77,7.8,7.8,7.8h48.42c5,0,7.8-2.76,7.8-7.8V223.82a2.24,2.24,0,0,1,1-2.1l3.27-2.08c.18-.11.29-.14.36-.19a2.49,2.49,0,0,1,.28.45l74.75,149.91a8.12,8.12,0,0,0,9.49,4.55L248.44,369a7.55,7.55,0,0,0,6-6.65c.28-3.3-1.73-6.19-5.39-7.72l-1.42-.65a28.28,28.28,0,0,1-7.61-5.59,33.27,33.27,0,0,1-9.87-21.58c-.25-3.36-.39-8.29-.39-14.57,0-15.69.81-35.27.93-37.46,0,0,0-3.77,0-3.77,0-55.29-26.63-81.35-38.84-90.39l8.51-7.36c3.1-2.68,4.45-3.86,5.08-4.52,0,.06-.11.25-.11.25,28.89-23.62,31.14-43.83,31.14-49.47l0-1.16s0-.44,0-.44c0-26.72-24.72-40.33-25-40.47A11.38,11.38,0,0,0,200.79,77.59Z"/><path class="cls-7" d="M201.65,79.12,160.08,102.8c-2.42,1.38-4.14,2.89-4.17,5.39h0c0,2.44,1.42,3.82,3.67,5.48,3.49,2.55,13.23,10.94,15,22.28a27.35,27.35,0,0,1,.32,4.13c0,10.08-5.52,21.27-16.37,33.27a126.69,126.69,0,0,1-15.16,14.48,43.84,43.84,0,0,1-7.6,5.14c-1.18.52-1.55.08-1.55-1.2V90c0-3.11-1.72-5.08-4.75-5.08H60.91c-4.63,0-5.52,4.14-3.2,6.6,1,1,2.29,2.49,3.7,4.13a55.15,55.15,0,0,1,12.92,33.67l0,5.06V340.15c0,4.05,2,6.05,6,6.05h48.42c4.06,0,6.05-2,6.05-6.05V223.82a4,4,0,0,1,1.85-3.58c.93-.6,2.11-1.34,3.25-2.06s2.33-.73,3.15.93c5.36,10.79,22.66,45.48,74.75,149.92a6.41,6.41,0,0,0,7.53,3.64L248,367.24c5.22-1.19,7-8.25.3-11l-1.5-.71a28.77,28.77,0,0,1-8.08-5.91,35,35,0,0,1-10.38-22.71c-.27-3.75-.4-9-.4-14.68,0-15.56.8-34.7.93-37.54,0-1.23,0-2.46,0-3.68,0-55.53-27.19-81.1-38.83-89.49a1,1,0,0,1,0-1.71c5.51-4.74,14.12-12.19,14.12-12.19,28.26-23.08,30.49-42.55,30.49-48.11,0-.47,0-.79,0-1v-.55c0-25.66-23.81-38.78-24.05-38.94A9.71,9.71,0,0,0,201.65,79.12Z"/><path class="cls-6" d="M204.24,83.65l-41.58,23.69a2,2,0,0,0-1.17,1.59,1.75,1.75,0,0,0,1,1.45c.59.34,14.77,8.8,17.25,24.76a33.73,33.73,0,0,1,.36,4.94c0,11.43-6,23.77-17.72,36.77-20.32,22.42-30.55,23.36-30.66,23.37a2.36,2.36,0,0,1-1.94-.56,2.52,2.52,0,0,1-.82-1.9V92.28a2.16,2.16,0,0,0-2.13-2.15H66.27a1.21,1.21,0,0,0-.89,2.1,60.75,60.75,0,0,1,14.19,37.08l0,5.07V338.84A2.14,2.14,0,0,0,81.67,341h45.8a2.15,2.15,0,0,0,2.13-2.13V221.22a4.56,4.56,0,0,1,2.16-4.05s9.95-6.3,9.95-6.3a2.6,2.6,0,0,1,2-.33,2.45,2.45,0,0,1,1.55,1.28s0,0,76.85,154a3,3,0,0,0,3.08,1.48l19.59-4.67a1.16,1.16,0,0,0,.84-1,1.28,1.28,0,0,0-.82-1.31,34.1,34.1,0,0,1-9.73-7,40,40,0,0,1-11.94-26c-1.11-14.31.33-48.94.49-52.84,1.5-69.8-40.59-91.37-41-91.59a2,2,0,0,1-1.18-1.48,1.94,1.94,0,0,1,.78-1.73l18.62-16.06c30.12-24.62,28.7-44.22,28.61-45,.44-23.07-21.08-34.88-21.3-35A4.46,4.46,0,0,0,204.24,83.65Z"/><path class="cls-6" d="M490,236.79c-9.8-10.89-18.19-29.29-18.19-60.37,0-39.16,11.66-56.61,22.7-67.4,9-8.79,20.74-14.62,26.19-14.62s18.79,4.31,27.79,13.11c11,10.78,21.09,29.76,21.09,68.92,0,31.08-10,49.49-19.82,60.37-9.49,10.54-27.18,15.52-31,15.52C516.79,252.31,502.59,250.79,490,236.79Zm30.7,4.85c3.12,0,9.42-5.26,12.54-13.1,3.91-9.8,4.82-26.07,4.82-55.84s-3.25-45.71-6.94-54.78-8.43-11.24-10.42-11.24-6.73,2.17-10.42,11.24-6.42,25-6.42,54.78,3,47.39,6.94,57.19S519.77,241.63,520.71,241.63Z"/><path class="cls-6" d="M291.71,162.17c4.49,7.49,4,17.28-3.9,24.36-4.22,3.76-25.28,19.41-26.35,20.17s-1.19,1.51-.74,2.85C264.54,221,272.55,229,282.39,229c7.83,0,14.29-5.13,14.73-6s.78-.61,1.07,0a15,15,0,0,1,.91,3.13c.14.91-.31,1.36-1.06,1.83S267.8,250,267,250.49a2.22,2.22,0,0,1-2.24.13c-13.85-5.69-28-20-28-50.09,0-20.8,8.08-41.83,25.14-54,4.21-3,13.38-8.72,14.13-9.34s1.2-.13,1.51.48C277.57,137.65,288.55,156.89,291.71,162.17ZM268.85,193c4.4-3.3,7.23-10.29,2.4-18.81-2.56-4.52-6.61-12.66-7.21-13.86a13.12,13.12,0,0,1-1.66-4.35c-.19-1.92-1.39-2.49-2.11-1-2.86,5.7-5.28,14.9-5.73,25.56a47,47,0,0,0,2.87,18.66c.29,1.05.88,1.36,1.66.77C259.08,199.94,264.63,196.15,268.85,193Z"/><path class="cls-6" d="M406.65,162.17c4.5,7.49,4,17.28-3.9,24.36-4.22,3.76-25.28,19.41-26.34,20.17s-1.2,1.51-.77,2.85C379.47,221,387.49,229,397.32,229c7.83,0,14.3-5.13,14.75-6s.75-.61,1.06,0a16.52,16.52,0,0,1,.9,3.13c.15.91-.31,1.36-1.06,1.83s-30.23,22.1-31,22.57a2.23,2.23,0,0,1-2.25.13c-13.84-5.69-28-20-28-50.09,0-20.8,8.07-41.83,25.13-54,4.22-3,13.38-8.72,14.14-9.34s1.2-.13,1.5.48C392.52,137.65,403.5,156.89,406.65,162.17ZM383.79,193c4.39-3.3,7.23-10.29,2.4-18.81-2.56-4.52-6.62-12.66-7.22-13.86a13.28,13.28,0,0,1-1.66-4.35c-.19-1.92-1.38-2.49-2.11-1-2.86,5.7-5.25,14.9-5.71,25.56a47.21,47.21,0,0,0,2.85,18.66c.29,1.05.91,1.36,1.65.77C374,199.94,379.57,196.15,383.79,193Z"/><path class="cls-6" d="M716.8,161.51c4.52,7.49,4,17.27-3.89,24.35-4.21,3.79-25.28,19.43-26.34,20.19s-1.19,1.48-.75,2.85c3.81,11.42,11.84,19.4,21.67,19.4,7.81,0,14.3-5.12,14.74-6s.76-.6,1.06,0a18.06,18.06,0,0,1,.9,3.17c.15.9-.29,1.35-1.06,1.81s-30.23,22.11-31,22.55a2.2,2.2,0,0,1-2.25.17c-13.86-5.73-28-20.05-28-50.12,0-20.78,8.06-41.84,25.12-54,4.22-3,13.39-8.75,14.16-9.35s1.2-.14,1.51.46C702.7,137,713.67,156.25,716.8,161.51ZM694,192.35c4.39-3.3,7.23-10.3,2.4-18.81-2.56-4.51-6.63-12.63-7.22-13.86a12.94,12.94,0,0,1-1.66-4.35c-.19-1.92-1.37-2.48-2.1-1-2.86,5.71-5.27,14.9-5.73,25.58a46.93,46.93,0,0,0,2.87,18.66c.29,1.06.9,1.34,1.64.76C684.16,199.29,689.73,195.5,694,192.35Z"/><path class="cls-6" d="M346.85,141.78l-13.44.08c-1.13,0-1.45-.33-1.45-1.4s-.4-25.41-.44-27S331,112,330,112a2.2,2.2,0,0,0-1.88,1.22c-.27.58-8.77,13.37-15,21.43a162.05,162.05,0,0,1-13,14.69,1.33,1.33,0,0,0-.38.87,24,24,0,0,1-.16,2.57c-.08.45.09.84.8.84h3.27a5.22,5.22,0,0,1,5.48,5.09c0,1.11.48,49.17.48,56s-.59,13.32,2.07,21.07c2.38,6.94,10.11,10.73,11.44,11.32a2.59,2.59,0,0,0,3-.65c.65-.8,16-17.64,16.84-18.37s.65-1.18,0-1.29a13.54,13.54,0,0,1-7.43-4.23c-2.23-2.22-3.73-5.58-3.73-11.14s0-53.4,0-54.58a1.33,1.33,0,0,1,1.49-1.52c.81,0,8.72.13,9.68,0s1.27-.33,1.57-1.1,3.25-10.51,3.41-11.48C348.07,142.09,348,141.78,346.85,141.78Z"/><path class="cls-6" d="M623.58,175.62c0,15.13.3,36.27.3,40.44,0,6.84-.6,13.29,2.06,21.06,2.4,6.92,9.23,10.87,10.6,11.44a2.58,2.58,0,0,0,3-.63c.63-.79,15.7-15.85,16.5-16.59s.66-1.16,0-1.28a9.93,9.93,0,0,1-6.91-3.89c-2.47-3.35-2.7-7.65-2.7-13.22,0-5.09-.36-47-.36-54.79a19.66,19.66,0,0,0-5.95-14.29,31.61,31.61,0,0,0-10.94-6.29c-1.3-.46-2.06-.5-3.69.76s-17.1,16.13-17.67,16.71-1,.2-1-1-.59-6.8-3.89-10.5a28.4,28.4,0,0,0-8.35-6c-1.09-.69-1.59-.64-2.22-.07-1.52,1.38-4.67,4.21-8.32,7.57s-7.7,6.61-8.95,7.49c-1.83,1.26-.5,3.09.08,2.31s.62-1.12,2-.61,7.38,3.09,7.38,13.4v78.44a1,1,0,0,0,1.16,1.15h20.39a1.32,1.32,0,0,0,1.36-1.37c0-.94-.31-68.52-.31-77.45,0-7.23,2.57-10.82,6.43-10.82C617,157.62,623.58,162.24,623.58,175.62Z"/><path class="cls-6" d="M442.08,115.13c0,10.84,0,91.53,0,96.34,0,5.56,1.52,8.91,3.74,11.14a9.19,9.19,0,0,0,7.64,3.14,1,1,0,0,1,.59,1.69c-.81.72-18.94,18.24-19.57,19.05a2.59,2.59,0,0,1-3,.63,21.13,21.13,0,0,1-9.81-11.32c-2.47-7.15-2.07-13.55-2.07-21.06,0-5.95-.15-71.33-.15-82.22,0-10.06-3.34-15.15-8.78-19.32-1.36-1-1.28-1.75.07-2.54s7.18-4.24,12-7.28,8.3-5.34,8.78-6.13,1.19-1,2.4-.49,4.14,2.86,6.14,6.79S442.08,111,442.08,115.13Z"/><path class="cls-6" d="M736.07,129.65h1.38c1.09,0,2.11.48,2.11,1.88a2.09,2.09,0,0,1-2.27,2.14h-1.22Zm-3.34,11.19h3.34v-5.2h1.56l2.86,5.41,3.51-.49-3.45-5.62a4.06,4.06,0,0,0,2.43-3.81c0-2.2-1.82-3.47-4.81-3.47h-5.43Zm4.82,6.23a12.34,12.34,0,1,0-12.5-12.4A12.45,12.45,0,0,0,737.55,147.06Zm0-2a10.32,10.32,0,1,1,10.19-10.37A10.39,10.39,0,0,1,737.55,145Z"/><path class="cls-6" d="M326.87,295.55c-.2-.21-.36-.21-.53,0a34.46,34.46,0,0,1-5.15,2.88c-3.46,1.73-7,3.4-7.18,3.44s-.2.15-.2.28a1.82,1.82,0,0,0,.23.72,2.2,2.2,0,0,0,.28.66c.09.11.21.16.47,0s2.81-1.25,6.42,3.66c1.7,2.33,1.55,7.68.68,12.16-.74,3.88-.5,4-2.86,10-2,5.24-6.33,12.71-8.27,16.18,0,0,0-.06,0-.07l-.52.84c0,.1-.27-.41-.31-.29l-12.67-34.17a14.26,14.26,0,0,1-.72-3.72c0-2.14,1.63-2.84,6.36-3.79v-2.6l-27.6,0v2.6c4.81.62,6,1.89,8.54,8.68L300,355.1h10.5c.29-1,13.48-26.11,17.15-34.49,4.4-10.07,4.28-17.42,1.55-22A18.69,18.69,0,0,0,326.87,295.55Z"/><path class="cls-6" d="M448.24,304.64c-4.33-3.47-9.67-4.84-18.68-4.84l-29.08,0v1.76l2.67.29a6.84,6.84,0,0,1,4.1,1.9c.62.85.78,2,.79,5.52l.06,33.73c0,3.57-.16,4.75-.79,5.54a6.63,6.63,0,0,1-4.09,1.9l-2.66.34v1.65l29.09,0c8.06,0,13.47-1.22,17.41-3.93,6.52-4.51,10.3-12.51,10.28-22.63C457.35,316.66,454.17,309.52,448.24,304.64ZM425,349.2l-3.75,0L421.22,303h3.5c13.11,0,18.49,6.67,18.51,23.18C443.26,342.38,437.91,349.17,425,349.2Z"/><path class="cls-6" d="M366,298.49c-9.53,0-16.29,2.24-21,7-4.45,4.57-7.54,11.29-7.52,20.13,0,9.79,3,16.4,7.59,21,4.86,4.74,11.49,6.94,20.94,6.91,18.7,0,28.6-9,28.58-27.6,0-9.29-3.1-16.08-7.66-20.49C382.13,300.76,375.35,298.48,366,298.49Zm.11,51.87c-9.32,0-14-8.28-14.05-24.67,0-15.72,4.8-24,13.88-24,9.32,0,14,8.17,14.06,24.27S375.38,350.35,366.15,350.36Z"/><path class="cls-6" d="M566.51,339.76l-15-40-11.26,0a33.37,33.37,0,0,1-1.72,6.61l-11.07,29.06c-4.21,10.23-6.21,13-9.86,13.94-3.58-6.09-6.43-12.74-10.42-18.54a38.63,38.63,0,0,0-6.16-7.18,21.79,21.79,0,0,0-3.75-2.61c-.65-.33-2.58-1.1-2.93-1.32l13-11.31c5.11-4.41,8.09-6.5,13.39-7.06v-1.72l-22.13,0v1.74c3.87.3,5,.82,5,2.63,0,1.55-.29,3.21-7.59,9.67-1.91,1.69-4.36,4.16-4.36,4.16l-8.7,7.74,0-16.56c0-3.62.14-4.4.78-5.25s2.35-1.67,4.07-1.91l2.68-.33v-1.86l-28.05.07v1.85l2.66.29a6.75,6.75,0,0,1,4.09,1.9c.63.85.8,1.62.8,5.26l.06,33.85c0,3.62-.16,4.66-.78,5.53a6.71,6.71,0,0,1-4.1,1.91l-2.67.31v1.73l27.54-.07,0-1.69-2.14-.34a6.55,6.55,0,0,1-4.09-1.87c-.63-.87-.8-1.91-.81-5.52V329.43l2.83-2.31s.87-.73,2.61.4a21.24,21.24,0,0,1,6.46,5.86c3.54,5.2,6.22,11.06,9.24,16.58,1.46,2.69,3,5.7,5.55,7.39a10.35,10.35,0,0,0,1.36.77,6.07,6.07,0,0,0,2.5.86,16.65,16.65,0,0,0,2.7.13c2.47,0,6.09,0,8.28,0,1.78,0,1.76,0,.15-1.18a25.8,25.8,0,0,1-5.06-5.48l15.06,0-.2-1.64c-4.51-.63-6.39-1.74-6.39-3.87a26.13,26.13,0,0,1,1.37-6l2.67-7.56H550.4l3,8.09a23.75,23.75,0,0,1,1.33,5.65c0,2-1.31,2.69-6.06,3.41l-.07,1.93,27-.1v-1.85C570.94,349.66,569.7,348.06,566.51,339.76Zm-33.3-9.31,8.31-22.67,7.94,22.64Z"/></g></svg>